<svg xmlns="http://www.w3.org/2000/svg" viewBox="0 0 3897.23 3656.68"><defs><style>.cls-1{fill:#fff;}.cls-2{fill:#f9801d;}.cls-3{fill:#169c9d;}</style></defs><title>Greenfield Logo FINAL</title><g id="Layer_8" data-name="Layer 8"><polygon class="cls-1" points="674.65 1086.02 695.24 1086.02 483.39 968.28 473.68 985.76 674.65 1097.46 674.65 1086.02"/><path class="cls-2" d="M1986,2842.09v865.35a10,10,0,0,0,10,10h0a10,10,0,0,0,10-10V2842.09a10,10,0,0,0-10-10.05h0A10,10,0,0,0,1986,2842.09Z" transform="translate(-94.94 -251.48)"/><path class="cls-2" d="M610.31,2919l1380.75,797.17a9.75,9.75,0,0,0,13.33-3.48h0a9.75,9.75,0,0,0-3.65-13.29L620,2902.2a9.74,9.74,0,0,0-13.33,3.48h0A9.75,9.75,0,0,0,610.31,2919Z" transform="translate(-94.94 -251.48)"/><rect class="cls-1" x="1943.06" y="2580.57" width="20" height="950.41" rx="10"/><rect class="cls-2" x="510.43" y="2348.09" width="20" height="320.78" rx="10"/><path class="cls-2" d="M2110,2842.09v865.35a10,10,0,0,1-10,10h0a10,10,0,0,1-10-10V2842.09a10,10,0,0,1,10-10.05h0A10,10,0,0,1,2110,2842.09Z" transform="translate(-94.94 -251.48)"/><path class="cls-2" d="M3485.69,2919,2104.94,3716.14a9.75,9.75,0,0,1-13.33-3.48h0a9.75,9.75,0,0,1,3.65-13.29L3476,2902.2a9.74,9.74,0,0,1,13.33,3.48h0A9.75,9.75,0,0,1,3485.69,2919Z" transform="translate(-94.94 -251.48)"/><rect class="cls-2" x="3375.69" y="2348.09" width="20" height="320.78" rx="10"/><path class="cls-3" d="M2042.7,408.49,652.72,1211a9.77,9.77,0,0,0-3.7,13.32h0a9.77,9.77,0,0,0,13.38,3.45l1390-802.51a9.78,9.78,0,0,0,3.71-13.32h0A9.79,9.79,0,0,0,2042.7,408.49Z" transform="translate(-94.94 -251.48)"/><path class="cls-2" d="M660.66,1219.76" transform="translate(-94.94 -251.48)"/><path class="cls-3" d="M650.12,1227.33l181.88,105c3.34,1.93,8.29-.39,11-5.17h0c2.76-4.78,2.29-10.22-1-12.15L660.12,1210c-3.34-1.93-8.29.39-11,5.17h0C646.31,1220,646.78,1225.4,650.12,1227.33Z" transform="translate(-94.94 -251.48)"/><rect class="cls-1" x="669.4" y="1123.96" width="20" height="320.78" rx="10" transform="translate(-867.52 979.07) rotate(-60)"/><rect class="cls-3" x="510.43" y="1043.9" width="20" height="304.53" rx="10"/><rect class="cls-3" x="688.34" y="1247.47" width="20" height="211.61" rx="8.54" transform="translate(-917.75 1029.94) rotate(-60)"/><path class="cls-3" d="M2053.29,408.46l1390,802.54a9.78,9.78,0,0,1,3.7,13.32h0a9.78,9.78,0,0,1-13.39,3.45l-1390-802.54a9.77,9.77,0,0,1-3.7-13.32h0A9.77,9.77,0,0,1,2053.29,408.46Z" transform="translate(-94.94 -251.48)"/><path class="cls-3" d="M3445.93,1227.33l-181.88,105c-3.34,1.93-8.29-.39-11.05-5.17h0c-2.76-4.78-2.29-10.22,1.05-12.15l181.88-105c3.34-1.93,8.28.39,11,5.17h0C3449.74,1220,3449.27,1225.4,3445.93,1227.33Z" transform="translate(-94.94 -251.48)"/><rect class="cls-1" x="3256.26" y="1274.35" width="320.78" height="20" rx="10" transform="translate(-279.37 1628.92) rotate(-30)"/><rect class="cls-3" x="3470.68" y="1295.37" width="20" height="304.53" rx="10" transform="translate(6866.42 2643.81) rotate(180)"/><rect class="cls-3" x="3387.71" y="1247.47" width="20" height="211.61" rx="8.54" transform="matrix(-0.5, -0.87, 0.87, -0.5, 3829.65, 4720.95)"/></g><g id="Layer_3" data-name="Layer 3"><path class="cls-1" d="M286.34,2052.27h169.4v244.2c0,123.2-61.6,193.6-180.4,193.6s-180.4-70.4-180.4-193.6v-400.4c0-123.2,61.6-193.61,180.4-193.61s180.4,70.41,180.4,193.61v74.8H341.34v-82.5c0-55-24.2-75.9-62.7-75.9s-62.7,20.9-62.7,75.9v415.8c0,55,24.2,74.8,62.7,74.8s62.7-19.8,62.7-74.8v-141.9h-55Z" transform="translate(-94.94 -251.48)"/><path class="cls-1" d="M786.84,2481.27c-6.6-19.8-11-31.9-11-94.6v-121c0-71.5-24.2-97.9-79.2-97.9h-41.8v313.5h-121v-770h182.6c125.4,0,179.3,58.3,179.3,177.11v60.5c0,79.2-25.3,130.9-79.2,156.2,60.5,25.3,80.3,83.6,80.3,163.9v118.8c0,37.4,1.1,64.9,13.2,93.5Zm-132-660v236.5h47.3c45.1,0,72.6-19.8,72.6-81.4v-75.9c0-55-18.7-79.2-61.6-79.2Z" transform="translate(-94.94 -251.48)"/><path class="cls-1" d="M1097,2035.77h166.1v110H1097v225.5h209v110H976v-770h330v110H1097Z" transform="translate(-94.94 -251.48)"/><path class="cls-1" d="M1501.83,2035.77h166.1v110h-166.1v225.5h209v110h-330v-770h330v110h-209Z" transform="translate(-94.94 -251.48)"/><path class="cls-1" d="M1893.42,1923.57v557.7h-108.9v-770h151.8l124.31,460.91V1711.26h107.8v770h-124.3Z" transform="translate(-94.94 -251.48)"/><path class="cls-1" d="M2376.31,2053.37h156.2v110h-156.2v317.9h-121v-770h320.1v110h-199.1Z" transform="translate(-94.94 -251.48)"/><path class="cls-1" d="M2633.7,1711.26h121v770h-121Z" transform="translate(-94.94 -251.48)"/><path class="cls-1" d="M2963.69,2035.77h166.1v110h-166.1v225.5h209v110h-330v-770h330v110h-209Z" transform="translate(-94.94 -251.48)"/><path class="cls-1" d="M3247.48,1711.26h121v660h199.1v110H3247.48Z" transform="translate(-94.94 -251.48)"/><path class="cls-1" d="M3620.37,1711.26h191.4c121,0,180.4,67.11,180.4,190.31V2291c0,123.2-59.4,190.3-180.4,190.3h-191.4Zm121,110v550h68.2c38.5,0,61.6-19.8,61.6-74.8v-400.4c0-55-23.1-74.8-61.6-74.8Z" transform="translate(-94.94 -251.48)"/><path class="cls-1" d="M828.4,1422h85v25H884.65v150h-27.5V1447H828.4Z" transform="translate(-94.94 -251.48)"/><path class="cls-1" d="M952.9,1597H925.4V1422h27.5v75h31.25v-75h28v175h-28v-75H952.9Z" transform="translate(-94.94 -251.48)"/><path class="cls-1" d="M1059.65,1495.78h37.75v25h-37.75V1572h47.5v25h-75V1422h75v25h-47.5Z" transform="translate(-94.94 -251.48)"/><path class="cls-1" d="M1162.9,1422h27.5v150h45.25v25H1162.9Z" transform="translate(-94.94 -251.48)"/><path class="cls-1" d="M1336.64,1597h-27.75l-4.75-31.75h-33.75l-4.75,31.75h-25.25l28-175h40.25Zm-62.75-55.5h26.5l-13.25-88.5Z" transform="translate(-94.94 -251.48)"/><path class="cls-1" d="M1406.89,1597c-1.5-4.5-2.5-7.25-2.5-21.5V1548c0-16.25-5.5-22.25-18-22.25h-9.5V1597h-27.5V1422h41.5c28.5,0,40.75,13.25,40.75,40.25V1476c0,18-5.75,29.75-18,35.5,13.75,5.75,18.25,19,18.25,37.25v27c0,8.5.25,14.75,3,21.25Zm-30-150v53.75h10.75c10.25,0,16.5-4.5,16.5-18.5V1465c0-12.5-4.25-18-14-18Z" transform="translate(-94.94 -251.48)"/><path class="cls-1" d="M1491.14,1499.53h38.5V1555c0,28-14,44-41,44s-41-16-41-44v-91c0-28,14-44,41-44s41,16,41,44v17h-26v-18.75c0-12.5-5.5-17.25-14.25-17.25s-14.25,4.75-14.25,17.25v94.5c0,12.5,5.5,17,14.25,17s14.25-4.5,14.25-17v-32.25h-12.5Z" transform="translate(-94.94 -251.48)"/><path class="cls-1" d="M1574.89,1495.78h37.75v25h-37.75V1572h47.5v25h-75V1422h75v25h-47.5Z" transform="translate(-94.94 -251.48)"/><path class="cls-1" d="M1676.39,1420c26.75,0,40.5,16,40.5,44v5.5h-26v-7.25c0-12.5-5-17.25-13.75-17.25s-13.75,4.75-13.75,17.25c0,36,53.75,42.75,53.75,92.75,0,28-14,44-41,44s-41-16-41-44v-10.75h26v12.5c0,12.5,5.5,17,14.25,17s14.25-4.5,14.25-17c0-36-53.75-42.75-53.75-92.75C1635.89,1436,1649.64,1420,1676.39,1420Z" transform="translate(-94.94 -251.48)"/><path class="cls-1" d="M1724.89,1422h85v25h-28.75v150h-27.5V1447h-28.75Z" transform="translate(-94.94 -251.48)"/><path class="cls-1" d="M1940.38,1531.78V1555c0,28-14,44-41,44s-41-16-41-44v-91c0-28,14-44,41-44s41,16,41,44v17h-26v-18.75c0-12.5-5.5-17.25-14.25-17.25s-14.25,4.75-14.25,17.25v94.5c0,12.5,5.5,17,14.25,17s14.25-4.5,14.25-17v-25Z" transform="translate(-94.94 -251.48)"/><path class="cls-1" d="M1957.13,1422h27.5v175h-27.5Z" transform="translate(-94.94 -251.48)"/><path class="cls-1" d="M1996.63,1422h85v25h-28.75v150h-27.5V1447h-28.75Z" transform="translate(-94.94 -251.48)"/><path class="cls-1" d="M2119.38,1539l-34.75-117h28.75l21,79.75,21-79.75h26.25l-34.75,117v58h-27.5Z" transform="translate(-94.94 -251.48)"/><path class="cls-1" d="M2231.37,1422h27.5v175h-27.5Z" transform="translate(-94.94 -251.48)"/><path class="cls-1" d="M2303.37,1470.28V1597h-24.75V1422h34.5l28.25,104.75V1422h24.5v175h-28.25Z" transform="translate(-94.94 -251.48)"/><path class="cls-1" d="M2482.62,1546.28,2501.37,1422h38.25v175h-26v-125.5l-19,125.5h-26l-20.5-123.75V1597h-24V1422h38.25Z" transform="translate(-94.94 -251.48)"/><path class="cls-1" d="M2559.61,1422h27.5v175h-27.5Z" transform="translate(-94.94 -251.48)"/><path class="cls-1" d="M2631.61,1470.28V1597h-24.75V1422h34.5l28.25,104.75V1422h24.5v175h-28.25Z" transform="translate(-94.94 -251.48)"/><path class="cls-1" d="M2741.36,1495.78h37.75v25h-37.75V1572h47.5v25h-75V1422h75v25h-47.5Z" transform="translate(-94.94 -251.48)"/><path class="cls-1" d="M2885.61,1531.78V1555c0,28-14,44-41,44s-41-16-41-44v-91c0-28,14-44,41-44s41,16,41,44v17h-26v-18.75c0-12.5-5.5-17.25-14.25-17.25s-14.25,4.75-14.25,17.25v94.5c0,12.5,5.5,17,14.25,17s14.25-4.5,14.25-17v-25Z" transform="translate(-94.94 -251.48)"/><path class="cls-1" d="M2959.85,1597c-1.5-4.5-2.5-7.25-2.5-21.5V1548c0-16.25-5.5-22.25-18-22.25h-9.5V1597h-27.5V1422h41.5c28.5,0,40.75,13.25,40.75,40.25V1476c0,18-5.75,29.75-18,35.5,13.75,5.75,18.25,19,18.25,37.25v27c0,8.5.25,14.75,3,21.25Zm-30-150v53.75h10.75c10.25,0,16.5-4.5,16.5-18.5V1465c0-12.5-4.25-18-14-18Z" transform="translate(-94.94 -251.48)"/><path class="cls-1" d="M3091.85,1597H3064.1l-4.75-31.75H3025.6l-4.75,31.75H2995.6l28-175h40.25Zm-62.75-55.5h26.5l-13.25-88.5Z" transform="translate(-94.94 -251.48)"/><path class="cls-1" d="M3132.1,1499.78h35.5v25h-35.5V1597h-27.5V1422h72.75v25H3132.1Z" transform="translate(-94.94 -251.48)"/><path class="cls-1" d="M3182.6,1422h85v25h-28.75v150h-27.5V1447H3182.6Z" transform="translate(-94.94 -251.48)"/><path class="cls-1" d="M1715.13,2669.11h37.75v25h-37.75v51.25h47.5v25h-75v-175h75v25h-47.5Z" transform="translate(-94.94 -251.48)"/><path class="cls-1" d="M1816.63,2593.36c26.75,0,40.5,16,40.5,44v5.5h-26v-7.25c0-12.5-5-17.25-13.75-17.25s-13.75,4.75-13.75,17.25c0,36,53.75,42.75,53.75,92.75,0,28-14,44-41,44s-41-16-41-44v-10.75h26v12.5c0,12.5,5.5,17,14.25,17s14.25-4.5,14.25-17c0-36-53.75-42.75-53.75-92.75C1776.13,2609.36,1789.88,2593.36,1816.63,2593.36Z" transform="translate(-94.94 -251.48)"/><path class="cls-1" d="M1865.13,2595.36h85v25h-28.75v150h-27.5v-150h-28.75Z" transform="translate(-94.94 -251.48)"/><path class="cls-1" d="M1973.63,2743.86v26.5h-26.5v-26.5Z" transform="translate(-94.94 -251.48)"/><path class="cls-1" d="M2072.62,2618.36c-8.75,0-14.25,4.75-14.25,17.25v18.75h-26v-17c0-28,14-44,41-44s41,16,41,44c0,55-54.75,75.5-54.75,104.25a18.92,18.92,0,0,0,.25,3.75h52v25h-79.5v-21.5c0-51.5,54.5-60,54.5-110.5C2086.87,2622.61,2081.37,2618.36,2072.62,2618.36Z" transform="translate(-94.94 -251.48)"/><path class="cls-1" d="M2129.12,2637.36c0-28,14.75-44,41.75-44s41.75,16,41.75,44v91c0,28-14.75,44-41.75,44s-41.75-16-41.75-44Zm27.5,92.75c0,12.5,5.5,17.25,14.25,17.25s14.25-4.75,14.25-17.25v-94.5c0-12.5-5.5-17.25-14.25-17.25s-14.25,4.75-14.25,17.25Z" transform="translate(-94.94 -251.48)"/><path class="cls-1" d="M2247.37,2617.36c21.25,0,26-10.25,30.25-22h18.5v175h-27.5v-133.5h-21.25Z" transform="translate(-94.94 -251.48)"/><path class="cls-1" d="M2346.37,2617.36c21.25,0,26-10.25,30.25-22h18.5v175h-27.5v-133.5h-21.25Z" transform="translate(-94.94 -251.48)"/></g><g id="Layer_4" data-name="Layer 4"><path class="cls-1" d="M573.47,1591.45V1233.38a8.47,8.47,0,0,1,4.23-7.32L2043.77,379.62a8.47,8.47,0,0,1,8.46,0L3518.3,1226.06a8.47,8.47,0,0,1,4.23,7.32v358.07a8.45,8.45,0,0,0,8.45,8.46h93.09a8.45,8.45,0,0,0,8.45-8.46V1169.88a8.46,8.46,0,0,0-4.22-7.33L2052.23,252.61a8.47,8.47,0,0,0-8.46,0L467.7,1162.55a8.46,8.46,0,0,0-4.22,7.33v421.57a8.45,8.45,0,0,0,8.45,8.46H565A8.45,8.45,0,0,0,573.47,1591.45Z" transform="translate(-94.94 -251.48)"/><path class="cls-1" d="M3522.53,2603.84v322.4a8.48,8.48,0,0,1-4.24,7.34L2052.24,3780a8.5,8.5,0,0,1-8.48,0l-1466-846.43a8.48,8.48,0,0,1-4.24-7.34v-322.4a8.48,8.48,0,0,0-8.48-8.48H472a8.48,8.48,0,0,0-8.48,8.48v385.91a8.45,8.45,0,0,0,4.24,7.34l1576,909.93a8.45,8.45,0,0,0,8.48,0l1576-909.93a8.45,8.45,0,0,0,4.24-7.34V2603.84a8.48,8.48,0,0,0-8.48-8.48h-93A8.48,8.48,0,0,0,3522.53,2603.84Z" transform="translate(-94.94 -251.48)"/></g></svg>